<svg width="1440" height="1024" viewBox="0 0 1440 1024" fill="none" xmlns="http://www.w3.org/2000/svg">
<g clip-path="url(#clip0_18_139)">
<path d="M1440 0H0V1024H1440V0Z" fill="#5D1499" fill-opacity="0.1"/>
<g filter="url(#filter0_f_18_139)">
<path d="M929.6 1312.43C1245.07 1312.43 1500.8 1039.64 1500.8 703.147C1500.8 366.651 1245.07 93.8666 929.6 93.8666C614.135 93.8666 358.4 366.651 358.4 703.147C358.4 1039.64 614.135 1312.43 929.6 1312.43Z" fill="#E645E3" fill-opacity="0.01"/>
<path d="M206.4 698.027C521.865 698.027 777.6 425.243 777.6 88.7467C777.6 -247.749 521.865 -520.533 206.4 -520.533C-109.065 -520.533 -364.8 -247.749 -364.8 88.7467C-364.8 425.243 -109.065 698.027 206.4 698.027Z" fill="#5D1499" fill-opacity="0.1"/>
<path d="M1014.4 836.267C1329.87 836.267 1585.6 563.483 1585.6 226.987C1585.6 -109.509 1329.87 -382.293 1014.4 -382.293C698.935 -382.293 443.2 -109.509 443.2 226.987C443.2 563.483 698.935 836.267 1014.4 836.267Z" fill="#E645E3" fill-opacity="0.01"/>
<path d="M544 1257.81C859.465 1257.81 1115.2 985.029 1115.2 648.533C1115.2 312.037 859.465 39.2534 544 39.2534C228.535 39.2534 -27.2 312.037 -27.2 648.533C-27.2 985.029 228.535 1257.81 544 1257.81Z" fill="#E645E3" fill-opacity="0.01"/>
<path d="M713.6 720.213C1029.07 720.213 1284.8 447.429 1284.8 110.933C1284.8 -225.563 1029.07 -498.347 713.6 -498.347C398.135 -498.347 142.4 -225.563 142.4 110.933C142.4 447.429 398.135 720.213 713.6 720.213Z" fill="#5D1499" fill-opacity="0.1"/>
<path d="M1294.4 1599.15C1609.87 1599.15 1865.6 1326.36 1865.6 989.867C1865.6 653.371 1609.87 380.587 1294.4 380.587C978.935 380.587 723.2 653.371 723.2 989.867C723.2 1326.36 978.935 1599.15 1294.4 1599.15Z" fill="#E645E3" fill-opacity="0.01"/>
</g>
</g>
<defs>
<filter id="filter0_f_18_139" x="-686.8" y="-842.533" width="2874.4" height="2763.68" filterUnits="userSpaceOnUse" color-interpolation-filters="sRGB">
<feFlood flood-opacity="0" result="BackgroundImageFix"/>
<feBlend mode="normal" in="SourceGraphic" in2="BackgroundImageFix" result="shape"/>
<feGaussianBlur stdDeviation="161" result="effect1_foregroundBlur_18_139"/>
</filter>
<clipPath id="clip0_18_139">
<rect width="1440" height="1024" fill="white"/>
</clipPath>
</defs>
</svg>
