<svg width="1440" height="941" viewBox="0 0 1440 941" fill="none" xmlns="http://www.w3.org/2000/svg">
<g clip-path="url(#clip0_16_73)">
<path d="M0 638.312L34.4 648.82C68.8 659.171 137.6 680.186 206.08 681.755C274.72 683.323 342.88 665.444 411.52 650.858C480 636.273 548.8 624.667 617.28 611.964C685.92 599.103 754.08 584.988 822.72 594.085C891.2 603.338 960 635.646 1028.48 641.762C1097.12 647.722 1165.28 627.333 1233.92 622.628C1302.4 617.923 1371.2 628.902 1405.6 634.391L1440 639.88V942.568H1405.6C1371.2 942.568 1302.4 942.568 1233.92 942.568C1165.28 942.568 1097.12 942.568 1028.48 942.568C960 942.568 891.2 942.568 822.72 942.568C754.08 942.568 685.92 942.568 617.28 942.568C548.8 942.568 480 942.568 411.52 942.568C342.88 942.568 274.72 942.568 206.08 942.568C137.6 942.568 68.8 942.568 34.4 942.568H0V638.312Z" fill="#E645E3" fill-opacity="0.07"/>
<path d="M0 743.39L34.4 737.43C68.8 731.314 137.6 719.394 206.08 701.515C274.72 683.793 342.88 660.268 411.52 661.052C480 661.837 548.8 686.93 617.28 690.537C685.92 694.301 754.08 676.422 822.72 682.695C891.2 688.969 960 719.394 1028.48 728.961C1097.12 738.685 1165.28 727.707 1233.92 714.062C1302.4 700.574 1371.2 684.264 1405.6 676.265L1440 668.11V942.568H1405.6C1371.2 942.568 1302.4 942.568 1233.92 942.568C1165.28 942.568 1097.12 942.568 1028.48 942.568C960 942.568 891.2 942.568 822.72 942.568C754.08 942.568 685.92 942.568 617.28 942.568C548.8 942.568 480 942.568 411.52 942.568C342.88 942.568 274.72 942.568 206.08 942.568C137.6 942.568 68.8 942.568 34.4 942.568H0V743.39Z" fill="#E645E3" fill-opacity="0.07"/>
<path d="M0 732.412L34.4 738.371C68.8 744.488 137.6 756.407 206.08 765.66C274.72 774.757 342.88 781.03 411.52 778.991C480 776.796 548.8 766.445 617.28 752.016C685.92 737.587 754.08 719.395 822.72 713.278C891.2 707.318 960 713.592 1028.48 727.236C1097.12 740.724 1165.28 761.74 1233.92 762.21C1302.4 762.681 1371.2 742.92 1405.6 732.882L1440 723.002V942.568H1405.6C1371.2 942.568 1302.4 942.568 1233.92 942.568C1165.28 942.568 1097.12 942.568 1028.48 942.568C960 942.568 891.2 942.568 822.72 942.568C754.08 942.568 685.92 942.568 617.28 942.568C548.8 942.568 480 942.568 411.52 942.568C342.88 942.568 274.72 942.568 206.08 942.568C137.6 942.568 68.8 942.568 34.4 942.568H0V732.412Z" fill="#E645E3" fill-opacity="0.07"/>
<path d="M0 784.167L34.4 792.479C68.8 800.948 137.6 817.572 206.08 819.454C274.72 821.336 342.88 808.162 411.52 804.241C480 800.32 548.8 805.653 617.28 812.397C685.92 819.141 754.08 827.609 822.72 819.925C891.2 812.397 960 788.872 1028.48 790.754C1097.12 792.479 1165.28 819.768 1233.92 818.356C1302.4 817.102 1371.2 787.303 1405.6 772.404L1440 757.505V942.568H1405.6C1371.2 942.568 1302.4 942.568 1233.92 942.568C1165.28 942.568 1097.12 942.568 1028.48 942.568C960 942.568 891.2 942.568 822.72 942.568C754.08 942.568 685.92 942.568 617.28 942.568C548.8 942.568 480 942.568 411.52 942.568C342.88 942.568 274.72 942.568 206.08 942.568C137.6 942.568 68.8 942.568 34.4 942.568H0V784.167Z" fill="#E645E3" fill-opacity="0.07"/>
<path d="M0 868.857L34.4 869.955C68.8 870.896 137.6 873.091 206.08 874.346C274.72 875.601 342.88 876.228 411.52 878.267C480 880.306 548.8 884.07 617.28 885.638C685.92 887.206 754.08 886.579 822.72 885.638C891.2 884.54 960 882.972 1028.48 872.778C1097.12 862.583 1165.28 843.763 1233.92 835.138C1302.4 826.512 1371.2 828.08 1405.6 828.864L1440 829.648V942.568H1405.6C1371.2 942.568 1302.4 942.568 1233.92 942.568C1165.28 942.568 1097.12 942.568 1028.48 942.568C960 942.568 891.2 942.568 822.72 942.568C754.08 942.568 685.92 942.568 617.28 942.568C548.8 942.568 480 942.568 411.52 942.568C342.88 942.568 274.72 942.568 206.08 942.568C137.6 942.568 68.8 942.568 34.4 942.568H0V868.857Z" fill="#E645E3" fill-opacity="0.07"/>
</g>
<defs>
<clipPath id="clip0_16_73">
<rect width="1440" height="941" fill="white"/>
</clipPath>
</defs>
</svg>
